<svg width="92" height="81" viewBox="0 0 92 81" fill="none" xmlns="http://www.w3.org/2000/svg">
<path d="M41.0991 50.3331V59.5924C37.0492 57.5337 23.7916 56.5212 30.4213 63.4298C37.0511 70.3384 40.2289 73.4063 42.8413 73.4063H63.5452C67.4667 73.4063 67.2482 63.6222 68.3387 60.5509C69.4293 57.4797 69.4274 54.4101 65.5059 53.0686C62.9951 52.2079 59.9246 50.0986 56.4516 48.6844M56.4516 48.6844C54.5224 47.8363 52.4066 47.3665 50.2512 47.3108V41.0164C52.751 40.3239 54.9836 39.0343 56.7006 37.2912C58.4176 35.5481 59.5516 33.4197 59.9765 31.1429C60.4015 28.8661 60.1007 26.5302 59.1076 24.395C58.1144 22.2597 56.468 20.409 54.3513 19.0485C52.2347 17.6881 49.7308 16.8713 47.1183 16.6891C44.5059 16.5069 41.8872 16.9664 39.5536 18.0165C37.2201 19.0666 35.2632 20.666 33.9007 22.637C32.5381 24.6079 31.8233 26.873 31.8358 29.1803L31.8339 29.1786C31.8379 31.7227 32.728 34.2044 34.384 36.2892C36.0401 38.374 38.3824 39.9615 41.0952 40.8376V50.3314C35.398 49.3139 30.298 46.5445 26.7081 42.5189C23.1181 38.4932 21.2724 33.4742 21.5014 28.3599C21.7304 23.2457 24.0191 18.3702 27.9579 14.6058C31.8966 10.8415 37.2284 8.43419 42.9989 7.81465C48.7694 7.19512 54.602 8.40384 59.4528 11.2245C64.3036 14.0451 67.856 18.2936 69.4742 23.2095C71.0924 28.1254 70.6708 33.3879 68.2847 38.0551C65.8987 42.7223 61.7041 46.4913 56.4516 48.6844Z" stroke="black" stroke-linecap="round" stroke-linejoin="round"/>
<path d="M60.168 29.1802C60.1758 26.8997 59.4733 24.661 58.1367 22.7075C56.8002 20.7541 54.8808 19.1607 52.5874 18.1007C50.294 17.0407 47.7144 16.5547 45.1291 16.6956C42.5439 16.8364 40.052 17.5987 37.9245 18.8995C35.797 20.2003 34.1154 21.9899 33.0626 24.0735C32.0097 26.1571 31.626 28.455 31.9531 30.7173C32.2803 32.9795 33.3057 35.1195 34.9179 36.9044C36.5301 38.6893 38.6673 40.0508 41.0972 40.8408V32.1553C41.0507 31.6012 41.1345 31.0446 41.3434 30.5204C41.5523 29.9961 41.8818 29.5154 42.3113 29.1083C42.7408 28.7013 43.261 28.3766 43.8394 28.1545C44.4179 27.9325 45.0422 27.8179 45.6732 27.8179C46.3042 27.8179 46.9285 27.9325 47.507 28.1545C48.0854 28.3766 48.6056 28.7013 49.0351 29.1083C49.4646 29.5154 49.7941 29.9961 50.003 30.5204C50.2119 31.0446 50.2957 31.6012 50.2492 32.1553V41.018C53.1169 40.2299 55.6246 38.6574 57.4079 36.5289C59.1912 34.4005 60.1574 31.8268 60.1661 29.1819L60.168 29.1802Z" stroke="black" stroke-linecap="round" stroke-linejoin="round"/>
<path d="M50.2512 41.0181V32.1554C50.2976 31.6013 50.2138 31.0447 50.0049 30.5205C49.796 29.9962 49.4665 29.5155 49.037 29.1084C48.6076 28.7014 48.0873 28.3767 47.5089 28.1546C46.9304 27.9326 46.3062 27.818 45.6751 27.818C45.0441 27.818 44.4198 27.9326 43.8414 28.1546C43.2629 28.3767 42.7427 28.7014 42.3132 29.1084C41.8838 29.5155 41.5543 29.9962 41.3454 30.5205C41.1365 31.0447 41.0526 31.6013 41.0991 32.1554V40.8392" stroke="black" stroke-linecap="round" stroke-linejoin="round"/>
</svg>
